<svg width="88" height="48" viewBox="0 0 88 48" fill="none" xmlns="http://www.w3.org/2000/svg">
<path d="M49.6266 12.7113C51.5226 11.483 53.3792 10.2949 55.2139 9.07651C55.5789 8.83416 55.8468 8.81917 56.2126 9.05019C57.5082 9.86825 58.8209 10.6611 60.0637 11.5924C58.5444 11.3884 57.2571 10.574 55.7722 10.1647C55.7722 13.9486 55.7722 17.6776 55.7722 21.5242C56.1091 21.5242 56.4495 21.5242 56.7897 21.5242C65.1241 21.5241 73.4584 21.5199 81.7928 21.5261C84.7272 21.5283 87.1078 23.3312 87.7634 26.0488C87.873 26.5034 87.8911 26.9849 87.8959 27.4544C87.9112 28.9165 87.9084 30.3792 87.8968 31.8414C87.8702 35.2203 85.2596 37.7148 81.7285 37.7192C75.5131 37.7272 69.2975 37.7214 63.0821 37.7212C62.8026 37.7212 62.5232 37.7212 62.1609 37.7212C62.1609 41.0786 62.1609 44.3931 62.1609 47.7554C57.9001 47.7554 53.7221 47.7554 49.4648 47.7554C49.4538 47.5203 49.4329 47.2838 49.4329 47.0471C49.4316 35.8432 49.4311 24.6392 49.4384 13.4353C49.4385 13.2037 49.5305 12.9721 49.6266 12.7113ZM68.5787 31.9169C72.3555 31.9169 76.1325 31.9169 79.906 31.9169C79.906 30.3299 79.906 28.8555 79.906 27.3557C73.9718 27.3557 68.0795 27.3557 62.1821 27.3557C62.1821 28.8917 62.1821 30.3828 62.1821 31.9169C64.3013 31.9169 66.3694 31.9169 68.5787 31.9169Z" fill="#0C9342"/>
<path d="M7.7216 42.1676C7.7216 44.0554 7.7216 45.8757 7.7216 47.7508C5.13384 47.7508 2.58635 47.7508 0 47.7508C0 39.0275 0 30.3292 0 21.5765C2.54679 21.5765 5.09386 21.5765 7.71214 21.5765C7.71214 24.6875 7.71214 27.7814 7.71214 30.9167C13.7021 30.9167 19.6215 30.9167 25.6319 30.9167C25.6319 27.7918 25.6319 24.6791 25.6319 21.5103C26.3026 21.5103 26.883 21.5103 27.5409 21.5103C27.5409 20.2692 27.5566 19.0835 27.5323 17.8986C27.5239 17.4923 27.6579 17.2573 28.0337 17.0427C29.789 16.0409 31.5224 15.004 33.3481 13.9299C33.3481 25.2445 33.3481 36.4726 33.3481 47.7524C30.8132 47.7524 28.2841 47.7524 25.6565 47.7524C25.6565 44.0801 25.6565 40.4059 25.6565 36.6905C19.6403 36.6905 13.7223 36.6905 7.7216 36.6905C7.7216 38.514 7.7216 40.3071 7.7216 42.1676Z" fill="#0D9343"/>
<path d="M47.1788 2.72158C47.11 2.70933 47.041 2.6971 46.9154 2.61114C46.5577 2.43509 46.2567 2.33277 45.9559 2.23046C45.9559 2.23046 45.9265 2.24022 45.8936 2.18547C45.4333 2.00762 45.006 1.88454 44.5787 1.76145C44.5471 2.09995 44.4877 2.43842 44.4876 2.77692C44.4829 17.3184 44.4861 31.8599 44.4715 46.4014C44.4711 46.8554 44.2949 47.3094 44.2006 47.7633C43.3985 47.7742 42.5964 47.7852 41.7181 47.7329C41.5551 47.3558 41.3933 47.0419 41.3926 46.7277C41.3776 40.504 41.3725 34.2801 41.3853 28.0563C41.3916 25.0045 41.4439 21.9528 41.4521 18.901C41.4525 18.7334 41.2369 18.5653 41.1219 18.3973C41.0891 18.3889 41.0565 18.3806 40.9734 18.2972C40.6719 18.1101 40.4207 17.9979 40.1693 17.8857C40.1693 17.8857 40.1295 17.8917 40.0994 17.8449C40.0236 17.7838 39.978 17.7692 39.9322 17.7548C39.9322 17.7548 39.949 17.7491 39.9362 17.7105C39.561 17.5109 39.1989 17.3502 38.8366 17.1896C38.8366 17.1896 38.8365 17.1896 38.8147 17.146C38.556 17.0023 38.3191 16.9025 38.0821 16.8026C38.0245 16.786 37.967 16.7694 37.867 16.6779C37.5724 16.4902 37.3203 16.3774 37.0682 16.2647C36.7119 16.0961 36.3338 15.9577 36.0085 15.7454C35.8509 15.6424 35.7025 15.4015 35.7015 15.2224C35.6829 11.9372 35.68 8.65166 35.7039 5.36657C35.7055 5.15473 35.8976 4.86053 36.0922 4.7463C38.7779 3.17016 41.474 1.6098 44.1881 0.0788444C44.403 -0.04236 44.8321 -0.0173417 45.0562 0.109601C46.5132 0.934499 47.9411 1.80642 49.4258 2.73184C49.5204 2.81597 49.5679 2.83124 49.6154 2.8465C49.6154 2.8465 49.5959 2.85183 49.6101 2.88558C49.7081 2.94607 49.7916 2.97279 49.8751 2.99951C49.8751 2.99951 49.864 3.00681 49.8813 3.04424C50.0354 3.14141 50.1725 3.20116 50.3095 3.26092C50.3095 3.26092 50.2951 3.26714 50.3118 3.30175C50.4681 3.39921 50.6078 3.46208 50.7475 3.52494C50.7475 3.52494 50.73 3.52748 50.7304 3.5714C50.9097 3.68491 51.0888 3.7545 51.2676 3.82407C51.3141 3.81825 51.3561 3.8288 51.4147 3.92073C51.3819 4.10697 51.3281 4.22819 51.2743 4.34941C51.2062 4.33477 51.1382 4.32014 51.013 4.24081C50.8402 4.14236 50.7244 4.10862 50.6087 4.07486C50.6087 4.07486 50.5868 4.09177 50.5517 4.04098C50.2078 3.88699 49.8989 3.7838 49.5901 3.6806C49.5901 3.6806 49.5816 3.68631 49.5559 3.64089C49.0061 3.4086 48.4821 3.22174 47.9579 3.03486C47.9579 3.03486 47.9097 3.03844 47.8691 2.98747C47.612 2.86485 47.3954 2.79322 47.1788 2.72158Z" fill="#0E9343"/>
<path d="M41.1482 18.443C41.2369 18.5653 41.4525 18.7334 41.4521 18.9011C41.4441 21.9529 41.3916 25.0045 41.3853 28.0563C41.3726 34.2802 41.3776 40.504 41.3926 46.7278C41.3933 47.042 41.5551 47.3559 41.6546 47.7162C41.5167 47.6657 41.2751 47.5946 41.2355 47.4663C41.1651 47.2393 41.2186 46.9777 41.2187 46.7305C41.2195 37.4717 41.2205 28.2129 41.2191 18.9543C41.2191 18.799 41.19 18.6439 41.1482 18.443Z" fill="#1D924E"/>
<path d="M44.2556 47.7794C44.2949 47.3094 44.4711 46.8554 44.4715 46.4014C44.4861 31.86 44.4829 17.3184 44.4876 2.77695C44.4878 2.43845 44.5471 2.09996 44.5787 1.76147C45.006 1.88456 45.4333 2.00765 45.8822 2.17533C45.5111 2.09752 45.1183 1.97513 44.6203 1.8199C44.6203 2.15587 44.6203 2.41514 44.6203 2.67442C44.62 17.4649 44.6211 32.2553 44.6079 47.0457C44.6077 47.2995 44.8623 47.7146 44.2556 47.7794Z" fill="#1D924E"/>
<path d="M38.863 17.2274C39.199 17.3503 39.5612 17.511 39.935 17.7189C39.5942 17.5991 39.2417 17.4322 38.863 17.2274Z" fill="#1D924E"/>
<path d="M37.0935 16.3032C37.3204 16.3775 37.5725 16.4902 37.8388 16.6435C37.6082 16.57 37.3634 16.4559 37.0935 16.3032Z" fill="#1D924E"/>
<path d="M38.1118 16.8397C38.3192 16.9025 38.5562 17.0023 38.8149 17.1458C38.6048 17.0852 38.3731 16.9809 38.1118 16.8397Z" fill="#1D924E"/>
<path d="M40.1958 17.9238C40.4207 17.998 40.672 18.1102 40.9417 18.2595C40.7142 18.1851 40.4682 18.0734 40.1958 17.9238Z" fill="#1D924E"/>
<path d="M39.949 17.7878C39.9781 17.7692 40.0237 17.7838 40.0887 17.829C40.0605 17.8468 40.013 17.8339 39.949 17.7878Z" fill="#1D924E"/>
</svg>
